<svg width="100" height="100" viewBox="0 0 100 100" fill="none" xmlns="http://www.w3.org/2000/svg">
<g clip-path="url(#clip0_193_5251)">
<circle cx="50" cy="50" r="50" fill="#FFBC57"/>
<path d="M90 43.0869L89.43 41.728L85.484 39.3623L80.4786 39.3989L77.7454 36.1076L74.5962 37.3859L72.0895 36.4235L70.3506 37.0111L67.0841 31.2731L64.7675 31.0749L63.2039 24.955L56.9487 24L55.7285 25.5721L50.5037 25.506L48.8231 27.9673L48.6549 31.0308L47.0181 29.3483L43.6785 29.9213L42.8089 28.2096L36.7 28.7312L28.1942 25.08L23.4153 24.8154L19.8347 28.0405L21.2376 33.0218L14.0106 39.5605L14.5223 43.1384L13.1484 42.5434L11 45.5557L14.5075 49.971L21.1793 51.2493L22.626 52.9172L28.3769 51.5946L29.0858 50.1842L34.5516 48.869L40.3902 52.4103L41.3767 55.5914L43.2912 57.0902L43.1891 59.6173L44.7089 62.5415L41.3693 63.4819L40.1272 65.8036L36.7512 68.8377L39.0311 70.917L45.564 67.2581L48.75 63.1661L50.5694 61.9905L54.1355 61.432L53.602 62.7618L53.4338 63.019L55.4653 65.4214L61.7862 65.4508L62.1003 66.8542L56.6564 69.9102L61.5304 72.3495L61.5745 73.966L60.683 75.8979L62.3562 77L65.1696 75.9861L71.2859 72.0116L75.1002 72.1879L75.6701 69.7486L73.5658 69.6093L70.5259 70.814L68.2096 67.9928L63.2033 64.8337L69.3347 64.4003L69.4004 64.4369L72.1775 61.6818L79.7041 58.3831L82.5829 58.1188L82.9702 54.7025L85.9151 52.8068L89.1671 52.6966L89.9488 49.6552L88.5385 45.5848L90 43.0869Z" fill="white"/>
</g>
<defs>
<clipPath id="clip0_193_5251">
<rect width="100" height="100" fill="white"/>
</clipPath>
</defs>
</svg>
