<svg width="97" height="23" viewBox="0 0 97 23" fill="none" xmlns="http://www.w3.org/2000/svg">
<path d="M0.05 11.598C0.05 8.462 1.016 5.86733 2.948 3.814C4.88 1.75133 7.344 0.719999 10.34 0.719999C11.544 0.719999 12.706 0.883332 13.826 1.21C14.9553 1.53667 15.9213 1.994 16.724 2.582L15.324 4.052C14.7547 3.464 14.036 3.016 13.168 2.708C12.3 2.39067 11.376 2.232 10.396 2.232C8.02533 2.232 6.14933 2.98333 4.768 4.486C3.38667 5.97933 2.70533 8.20533 2.724 11.164C2.74267 14.2627 3.48467 16.638 4.95 18.29C6.41533 19.9327 8.31 20.754 10.634 20.754C12.1647 20.754 13.476 20.46 14.568 19.872C15.66 19.284 16.5 18.5467 17.088 17.66L18.194 18.598C17.326 19.8113 16.206 20.7493 14.834 21.412C13.4713 22.0747 11.964 22.406 10.312 22.406C7.39067 22.406 4.95 21.454 2.99 19.55C1.03 17.6367 0.05 14.986 0.05 11.598ZM14.68 3.478L15.8 1.182H16.892V7.44H15.59L14.68 3.478ZM19.3273 11.668C19.3273 8.51333 20.2467 5.9 22.0853 3.828C23.9333 1.756 26.36 0.719999 29.3653 0.719999C32.3707 0.719999 34.7927 1.69533 36.6313 3.646C38.47 5.59667 39.3893 8.20533 39.3893 11.472C39.3893 14.58 38.4793 17.184 36.6593 19.284C34.8393 21.3747 32.422 22.42 29.4073 22.42C26.4767 22.42 24.064 21.4307 22.1693 19.452C20.2747 17.4733 19.3273 14.8787 19.3273 11.668ZM22.0013 11.178C22.0013 14.1087 22.6827 16.4653 24.0453 18.248C25.408 20.0213 27.186 20.908 29.3793 20.908C31.778 20.908 33.598 20.1147 34.8393 18.528C36.09 16.932 36.7153 14.6033 36.7153 11.542C36.7153 8.78867 36.048 6.56267 34.7133 4.864C33.388 3.16533 31.61 2.316 29.3793 2.316C26.99 2.316 25.1607 3.086 23.8913 4.626C22.6313 6.15667 22.0013 8.34067 22.0013 11.178ZM41.5038 22V20.852L44.2478 20.348L44.2758 11.444L44.2478 2.778L41.5038 2.302V0.999998H50.1278C52.0504 0.999998 53.4691 1.42 54.3838 2.26C55.3078 3.1 55.7698 4.29 55.7698 5.83C55.7698 7.51933 55.2098 8.89133 54.0898 9.946C52.9791 10.9913 51.6584 11.514 50.1278 11.514C49.5118 11.514 48.7231 11.4953 47.7618 11.458C46.8098 11.4113 46.0818 11.3693 45.5778 11.332V10.24L47.1038 10.254H49.0918C50.4731 10.254 51.4718 9.86667 52.0878 9.092C52.7131 8.31733 53.0258 7.272 53.0258 5.956C53.0258 4.78933 52.7551 3.898 52.2138 3.282C51.6724 2.666 50.7998 2.358 49.5958 2.358H47.1878L46.7958 2.624L46.7398 11.458L46.7678 20.348L49.6238 20.852V22H41.5038ZM48.9378 11.332L50.9678 10.268L55.6298 17.73C56.4604 18.99 57.1931 19.8253 57.8278 20.236C58.4718 20.6373 59.0504 20.8427 59.5638 20.852V22H56.0358L55.1118 21.104L48.9378 11.332ZM58.7909 22V20.852L61.3389 20.362L63.5929 14.412L68.3809 0.888H70.0889L74.8209 13.74L77.3409 20.362L79.7069 20.852V22H72.2309V20.852L74.6109 20.418L72.7769 14.86L68.7309 4.192L64.8949 14.804L63.1029 20.432L65.7209 20.852V22H58.7909ZM63.9709 15.448L64.4609 14.062L69.2069 14.202L73.7569 14.048L74.1209 15.448H63.9709ZM80.3866 22V20.852L83.1306 20.404L83.1586 11.444L83.1306 2.778L80.3866 2.302V0.999998H88.8566V2.302L85.6506 2.778L85.6226 11.444L85.6506 20.39L86.3786 20.754H93.3646L94.8626 16.26H96.2486L95.5486 22H80.3866Z" fill="black"/>
</svg>
