<svg width="100" height="100" viewBox="0 0 100 100" fill="none" xmlns="http://www.w3.org/2000/svg">
<g clip-path="url(#clip0_187_4612)">
<circle cx="50" cy="50" r="50" fill="#FFBC57"/>
<path d="M71.269 33.028H58.8807V29.658C58.8807 27.6048 57.2074 25.9457 55.1497 25.9457H28.7206C26.6629 25.9457 25 27.6152 25 29.658V70.2335C25 72.2866 26.6732 73.9457 28.7206 73.9457H55.1497C57.2074 73.9457 58.8807 72.2763 58.8807 70.2335V65.1836H71.269C73.3268 65.1836 75 63.5141 75 61.4713V36.7507C74.9896 34.6975 73.3164 33.028 71.269 33.028ZM67.6003 35.5167V62.6949H65.1995V35.5167H67.6003ZM56.3864 70.2231C56.3864 70.8971 55.8356 71.4467 55.1497 71.4467H28.7206C28.0451 71.4467 27.4943 70.8971 27.4943 70.2231V29.658C27.4943 28.984 28.0451 28.4344 28.7206 28.4344H55.1497C55.8252 28.4344 56.3864 28.984 56.3864 29.658V70.2231ZM58.8807 35.5167H62.7157V62.6949H58.8807V35.5167ZM72.4953 61.461C72.4953 62.135 71.9445 62.6846 71.2586 62.6846H70.0946V35.5167H71.2586C71.9341 35.5167 72.4953 36.0663 72.4953 36.7403V61.461Z" fill="white"/>
<path d="M34.7896 48.1985H49.0798C50.8361 48.1985 52.26 46.7779 52.26 45.0255V35.7034C52.26 33.9509 50.8361 32.5303 49.0798 32.5303H34.7896C33.0332 32.5303 31.6094 33.9509 31.6094 35.7034V45.0255C31.6094 46.7779 33.0332 48.1985 34.7896 48.1985ZM34.1037 35.7034C34.1037 35.3197 34.4154 35.019 34.7896 35.019H49.0798C49.4643 35.019 49.7657 35.3301 49.7657 35.7034V45.0255C49.7657 45.4091 49.4539 45.7099 49.0798 45.7099H34.7896C34.4051 45.7099 34.1037 45.3988 34.1037 45.0255V35.7034Z" fill="white"/>
<path d="M34.509 53.3625H32.8565C32.1706 53.3625 31.6094 53.9224 31.6094 54.6068C31.6094 55.2912 32.1706 55.8511 32.8565 55.8511H34.509C35.1949 55.8511 35.7561 55.2912 35.7561 54.6068C35.7561 53.9224 35.1949 53.3625 34.509 53.3625Z" fill="white"/>
<path d="M42.7609 53.3625H41.1085C40.4225 53.3625 39.8613 53.9224 39.8613 54.6068C39.8613 55.2912 40.4225 55.8511 41.1085 55.8511H42.7609C43.4469 55.8511 44.0081 55.2912 44.0081 54.6068C44.0081 53.9224 43.4469 53.3625 42.7609 53.3625Z" fill="white"/>
<path d="M51.0246 53.3625H49.3721C48.6862 53.3625 48.125 53.9224 48.125 54.6068C48.125 55.2912 48.6862 55.8511 49.3721 55.8511H51.0246C51.7105 55.8511 52.2717 55.2912 52.2717 54.6068C52.2717 53.9224 51.7105 53.3625 51.0246 53.3625Z" fill="white"/>
<path d="M34.509 58.9827H32.8565C32.1706 58.9827 31.6094 59.5426 31.6094 60.227C31.6094 60.9114 32.1706 61.4713 32.8565 61.4713H34.509C35.1949 61.4713 35.7561 60.9114 35.7561 60.227C35.7561 59.5426 35.1949 58.9827 34.509 58.9827Z" fill="white"/>
<path d="M42.7609 58.9827H41.1085C40.4225 58.9827 39.8613 59.5426 39.8613 60.227C39.8613 60.9114 40.4225 61.4713 41.1085 61.4713H42.7609C43.4469 61.4713 44.0081 60.9114 44.0081 60.227C44.0081 59.5426 43.4469 58.9827 42.7609 58.9827Z" fill="white"/>
<path d="M51.0246 58.9827H49.3721C48.6862 58.9827 48.125 59.5426 48.125 60.227C48.125 60.9114 48.6862 61.4713 49.3721 61.4713H51.0246C51.7105 61.4713 52.2717 60.9114 52.2717 60.227C52.2717 59.5426 51.7105 58.9827 51.0246 58.9827Z" fill="white"/>
<path d="M34.509 64.6029H32.8565C32.1706 64.6029 31.6094 65.1629 31.6094 65.8472C31.6094 66.5316 32.1706 67.0916 32.8565 67.0916H34.509C35.1949 67.0916 35.7561 66.5316 35.7561 65.8472C35.7561 65.1629 35.1949 64.6029 34.509 64.6029Z" fill="white"/>
<path d="M42.7609 64.6029H41.1085C40.4225 64.6029 39.8613 65.1629 39.8613 65.8472C39.8613 66.5316 40.4225 67.0916 41.1085 67.0916H42.7609C43.4469 67.0916 44.0081 66.5316 44.0081 65.8472C44.0081 65.1629 43.4469 64.6029 42.7609 64.6029Z" fill="white"/>
<path d="M51.0246 64.6029H49.3721C48.6862 64.6029 48.125 65.1629 48.125 65.8472C48.125 66.5316 48.6862 67.0916 49.3721 67.0916H51.0246C51.7105 67.0916 52.2717 66.5316 52.2717 65.8472C52.2717 65.1629 51.7105 64.6029 51.0246 64.6029Z" fill="white"/>
</g>
<defs>
<clipPath id="clip0_187_4612">
<rect width="100" height="100" fill="white"/>
</clipPath>
</defs>
</svg>
